# xmcd
#
# Track frame offsets:
#	150
#	16072
#	30991
#	55711
#	75045
#	92914
#	109481
#	128517
#	144707
#	159703
#	173339
#
# Disc length: 2560 seconds
#
# Revision: 1
# Processed by: cddbd v1.5.2PL0 Copyright (c) Steve Scherf et al.
# Submitted via: audiograbber 1.83.01
#
DISCID=7609fe0b
DTITLE=Cole Mitchell - Bulletproof
DYEAR=2006
DGENRE=Country Rock
TTITLE0=True Confessions
TTITLE1=Daddy's Little Girl
TTITLE2=Living with the Flood
TTITLE3=Faded Pictures
TTITLE4=My Part of Town
TTITLE5=The Edge Of Life
TTITLE6=Thin Grey Line
TTITLE7=Close to the Bone
TTITLE8=House Party
TTITLE9=Since She's Gone Away
TTITLE10=Bulletproof
EXTD=
EXTT0=
EXTT1=
EXTT2=
EXTT3=
EXTT4=
EXTT5=
EXTT6=
EXTT7=
EXTT8=
EXTT9=
EXTT10=
PLAYORDER=
